<?xml version="1.0" encoding="utf-8"?>
<!-- Generator: Adobe Illustrator 25.2.0, SVG Export Plug-In . SVG Version: 6.00 Build 0)  -->
<svg version="1.1" id="Layer_1" xmlns="http://www.w3.org/2000/svg" xmlns:xlink="http://www.w3.org/1999/xlink" x="0px" y="0px"
	 viewBox="0 0 22 22" style="enable-background:new 0 0 22 22;" xml:space="preserve">
<style type="text/css">
	.st0{fill:#495057;}
</style>
<g>
	<path class="st0" d="M6,9.8H4C1.6,9.8,0.2,8.4,0.2,6V4c0-2.4,1.3-3.8,3.8-3.8h2c2.4,0,3.8,1.3,3.8,3.8v2C9.8,8.4,8.4,9.8,6,9.8z
		 M4,1.8C2.4,1.8,1.8,2.4,1.8,4v2c0,1.6,0.7,2.2,2.2,2.2h2c1.6,0,2.2-0.7,2.2-2.2V4c0-1.6-0.7-2.2-2.2-2.2H4z"/>
	<path class="st0" d="M18,9.8h-2c-2.4,0-3.8-1.3-3.8-3.8V4c0-2.4,1.3-3.8,3.8-3.8h2c2.4,0,3.8,1.3,3.8,3.8v2
		C21.8,8.4,20.4,9.8,18,9.8z M16,1.8c-1.6,0-2.2,0.7-2.2,2.2v2c0,1.6,0.7,2.2,2.2,2.2h2c1.6,0,2.2-0.7,2.2-2.2V4
		c0-1.6-0.7-2.2-2.2-2.2H16z"/>
	<path class="st0" d="M18,21.8h-2c-2.4,0-3.8-1.3-3.8-3.8v-2c0-2.4,1.3-3.8,3.8-3.8h2c2.4,0,3.8,1.3,3.8,3.8v2
		C21.8,20.4,20.4,21.8,18,21.8z M16,13.8c-1.6,0-2.2,0.7-2.2,2.2v2c0,1.6,0.7,2.2,2.2,2.2h2c1.6,0,2.2-0.7,2.2-2.2v-2
		c0-1.6-0.7-2.2-2.2-2.2H16z"/>
	<path class="st0" d="M6,21.8H4c-2.4,0-3.8-1.3-3.8-3.8v-2c0-2.4,1.3-3.8,3.8-3.8h2c2.4,0,3.8,1.3,3.8,3.8v2
		C9.8,20.4,8.4,21.8,6,21.8z M4,13.8c-1.6,0-2.2,0.7-2.2,2.2v2c0,1.6,0.7,2.2,2.2,2.2h2c1.6,0,2.2-0.7,2.2-2.2v-2
		c0-1.6-0.7-2.2-2.2-2.2H4z"/>
</g>
</svg>
