<svg width="26" height="26" viewBox="0 0 26 26" fill="none" xmlns="http://www.w3.org/2000/svg">
<rect width="26" height="26" rx="3" fill="#F8CDCD"/>
<path d="M18.5745 8.59043C17.5845 8.48629 16.5945 8.40819 15.5984 8.34961V8.3431L15.4631 7.49698C15.3709 6.89819 15.2356 6 13.7967 6H12.1857C10.753 6 10.6178 6.85914 10.5194 7.49047L10.3903 8.32357C9.8184 8.36263 9.24655 8.40168 8.6747 8.46025L7.42032 8.59043C7.16207 8.61646 6.9776 8.85728 7.0022 9.12413C7.02679 9.39099 7.24816 9.58624 7.50641 9.56021L8.76079 9.43004C11.9828 9.09159 15.2294 9.22176 18.4884 9.56672C18.5068 9.56672 18.5191 9.56672 18.5376 9.56672C18.7712 9.56672 18.9741 9.37797 18.9987 9.12413C19.0172 8.85728 18.8327 8.61646 18.5745 8.59043Z" fill="#E43737"/>
<path d="M17.4431 10.4844C17.2956 10.3217 17.0927 10.2306 16.8836 10.2306H9.11136C8.9023 10.2306 8.69324 10.3217 8.55181 10.4844C8.41039 10.6471 8.33045 10.8684 8.34275 11.0962L8.72398 17.7741C8.79162 18.7634 8.8777 20 11.0237 20H14.9713C17.1172 20 17.2033 18.7699 17.271 17.7741L17.6522 11.1027C17.6645 10.8684 17.5846 10.6471 17.4431 10.4844ZM14.0182 16.7392H11.9706C11.7185 16.7392 11.5094 16.5179 11.5094 16.251C11.5094 15.9842 11.7185 15.7629 11.9706 15.7629H14.0182C14.2703 15.7629 14.4794 15.9842 14.4794 16.251C14.4794 16.5179 14.2703 16.7392 14.0182 16.7392ZM14.5347 14.1357H11.4602C11.2081 14.1357 10.9991 13.9144 10.9991 13.6476C10.9991 13.3807 11.2081 13.1595 11.4602 13.1595H14.5347C14.7868 13.1595 14.9959 13.3807 14.9959 13.6476C14.9959 13.9144 14.7868 14.1357 14.5347 14.1357Z" fill="#E43737"/>
</svg>
