<svg width="26" height="26" viewBox="0 0 26 26" fill="none" xmlns="http://www.w3.org/2000/svg">
<rect width="26" height="26" rx="3" fill="#C6DCFF"/>
<path d="M19.4615 20H6.53846C6.2441 20 6 19.7619 6 19.4748C6 19.1877 6.2441 18.9497 6.53846 18.9497H19.4615C19.7559 18.9497 20 19.1877 20 19.4748C20 19.7619 19.7559 20 19.4615 20Z" fill="#1B76FF"/>
<path d="M18.04 7.03199C16.6472 5.67357 15.2831 5.63855 13.8544 7.03199L12.9856 7.87925C12.9138 7.94927 12.8851 8.06131 12.9138 8.15934C13.4595 10.0149 14.9815 11.4994 16.8841 12.0315C16.9128 12.0385 16.9415 12.0455 16.9703 12.0455C17.0492 12.0455 17.121 12.0175 17.1785 11.9615L18.04 11.1143C18.7508 10.428 19.0954 9.76283 19.0954 9.09062C19.1026 8.39741 18.7579 7.7252 18.04 7.03199Z" fill="#1B76FF"/>
<path d="M15.5918 12.6687C15.3836 12.5707 15.1826 12.4727 14.9887 12.3606C14.8308 12.2696 14.68 12.1716 14.5292 12.0665C14.4072 11.9895 14.2636 11.8775 14.1272 11.7655C14.1128 11.7584 14.0626 11.7164 14.0051 11.6604C13.7682 11.4644 13.5026 11.2123 13.2656 10.9322C13.2441 10.9182 13.2082 10.8692 13.1579 10.8062C13.0862 10.7221 12.9641 10.5821 12.8564 10.421C12.7703 10.316 12.6697 10.162 12.5764 10.0079C12.4615 9.81885 12.361 9.62979 12.2605 9.43373C12.2453 9.40194 12.2306 9.37032 12.2163 9.33888C12.1104 9.10548 11.7983 9.03725 11.6133 9.21773L7.50051 13.2289C7.40718 13.3199 7.32103 13.495 7.29949 13.614L6.91179 16.2959C6.84 16.772 6.97641 17.2201 7.27795 17.5212C7.53641 17.7663 7.89538 17.8994 8.28308 17.8994C8.36923 17.8994 8.45538 17.8923 8.54154 17.8783L11.2985 17.5002C11.4277 17.4792 11.6072 17.3952 11.6933 17.3042L15.8009 13.298C15.9873 13.1163 15.917 12.8043 15.6746 12.7035C15.6473 12.6921 15.6197 12.6805 15.5918 12.6687Z" fill="#1B76FF"/>
</svg>
